# xmcd
#
# Track frame offsets: 
#        205
#        9645
#        18085
#        28637
#        39410
#        63857
#        78220
#        90722
#        102225
#        117375
#        129592
#        140972
#
# Disc length: 2087 seconds
#
# Revision: 1
# Processed by: cddbd v1.4PL0 Copyright (c) Steve Scherf et al.
# Submitted via: ExactAudioCopy v0.90b4
#
DISCID=9508250c
DTITLE=Ricky Skaggs - That's It
DYEAR=1986
DGENRE=Country
TTITLE0=Red Apple Rag
TTITLE1=Darktown Strutter's Ball
TTITLE2=Florida Blues
TTITLE3=The Bubble Gum Song
TTITLE4=Whitesburg
TTITLE5=Meetin' House Branch
TTITLE6=Sweet Georgia Brown
TTITLE7=Hook and Line
TTITLE8=Southern Moon
TTITLE9=21 Fiddle Salute
TTITLE10=That's It
TTITLE11=That Evergreen Shore
EXTD=
EXTT0=
EXTT1=
EXTT2=
EXTT3=
EXTT4=
EXTT5=
EXTT6=
EXTT7=
EXTT8=
EXTT9=
EXTT10=
EXTT11=
PLAYORDER=
